<?xml version="1.0" standalone="no"?>
<!DOCTYPE svg PUBLIC "-//W3C//DTD SVG 20010904//EN"
 "http://www.w3.org/TR/2001/REC-SVG-20010904/DTD/svg10.dtd">
<svg version="1.0" xmlns="http://www.w3.org/2000/svg"
 width="512.000000pt" height="512.000000pt" viewBox="0 0 512.000000 512.000000"
 preserveAspectRatio="xMidYMid meet">

<g transform="translate(0.000000,512.000000) scale(0.100000,-0.100000)"
fill="#000000" stroke="none">
<path d="M873 5085 c0 -22 2 -30 4 -17 2 12 2 30 0 40 -3 9 -5 -1 -4 -23z"/>
<path d="M1070 5049 c0 -48 -3 -68 -11 -63 -6 3 -10 -1 -9 -12 1 -11 1 -39 -1
-64 -2 -42 -3 -40 -9 20 -6 63 -7 63 -8 -32 -1 -53 -6 -100 -12 -103 -5 -3
-11 -18 -12 -33 0 -15 -4 -4 -8 23 -7 48 -7 47 -9 -25 -1 -53 -4 -71 -11 -60
-7 11 -10 7 -11 -20 l-2 -35 -7 35 c-7 32 -7 30 -9 -20 -1 -40 -4 -51 -11 -40
-7 11 -10 7 -11 -20 l-2 -35 -7 35 c-7 34 -7 34 -9 -13 0 -29 -5 -46 -11 -42
-5 3 -10 -4 -11 -17 -1 -23 -1 -23 -9 2 -7 22 -8 20 -10 -15 -1 -32 -3 -36
-10 -20 -7 17 -9 16 -10 -10 l-2 -30 -8 30 c-8 30 -8 29 -9 -8 0 -21 -7 -45
-15 -53 -13 -12 -15 -10 -19 18 -4 32 -4 32 -5 -5 -1 -21 -8 -45 -16 -53 -13
-12 -15 -10 -19 18 -4 32 -4 32 -5 -5 -1 -21 -8 -45 -16 -53 -13 -12 -15 -10
-19 18 -4 32 -4 32 -5 -5 -1 -21 -8 -45 -16 -53 -13 -12 -15 -10 -19 18 -4 32
-4 32 -5 -5 -1 -23 -6 -36 -12 -32 -5 3 -11 -2 -11 -12 -1 -10 -5 -4 -9 12
l-8 30 -1 -35 c-1 -27 -4 -31 -11 -20 -8 12 -10 10 -11 -10 l-1 -25 -8 25 -8
25 -1 -28 c-1 -16 -5 -26 -11 -22 -5 3 -10 0 -11 -7 -1 -7 -5 -2 -9 12 -7 23
-8 22 -9 -10 -1 -26 -4 -31 -11 -20 -8 13 -10 12 -11 -5 -1 -14 -4 -10 -9 10
l-8 30 -1 -35 c-1 -27 -4 -31 -11 -20 -8 12 -10 12 -11 -5 l0 -20 -9 20 c-8
19 -9 19 -9 -1 -1 -34 -29 -38 -34 -6 -3 23 -4 22 -6 -8 -1 -27 -4 -31 -11
-20 -8 12 -10 12 -11 -5 l0 -20 -9 20 c-8 18 -9 18 -9 2 -1 -10 -5 -15 -11
-12 -5 3 -10 0 -11 -7 -1 -7 -5 -2 -9 12 l-8 25 -1 -27 c-1 -35 -24 -33 -32 2
-6 22 -7 20 -8 -10 -1 -27 -4 -31 -11 -20 -8 12 -10 12 -11 -5 l0 -20 -9 20
-9 20 -1 -20 -1 -20 -9 20 c-8 18 -9 18 -10 -5 l-2 -25 -8 25 c-8 24 -8 24 -9
3 -1 -13 -7 -23 -15 -23 -8 0 -17 10 -19 23 -4 20 -4 20 -6 -4 0 -16 -7 -26
-16 -26 -9 0 -15 10 -16 26 -1 25 -2 25 -9 -4 -4 -16 -8 -25 -9 -20 -1 6 -6 3
-11 -5 -7 -11 -10 -7 -11 20 l-2 35 -7 -35 c-4 -19 -8 -28 -9 -20 -1 13 -2 13
-11 0 -8 -12 -10 -10 -11 10 l-1 25 -8 -25 c-4 -14 -9 -18 -9 -10 -1 13 -2 13
-11 0 -8 -12 -10 -10 -11 10 l-1 25 -8 -25 c-4 -14 -9 -18 -9 -10 -1 13 -2 13
-11 0 -6 -10 -10 -749 -10 -2037 l0 -2023 2560 0 2560 0 0 2560 0 2560 -2025
0 -2025 0 0 -71z m900 -1169 l0 -600 595 0 595 0 0 600 0 600 65 0 65 0 0
-600 0 -600 601 0 c544 0 601 -2 595 -16 -3 -9 -6 -38 -6 -65 l0 -49 -595 0
-595 0 0 -595 0 -595 601 0 c544 0 601 -2 595 -16 -3 -9 -6 -36 -6 -60 l0 -44
-595 0 -595 0 0 -600 0 -600 -65 0 -65 0 0 600 0 600 -595 0 -595 0 0 -600 0
-600 -65 0 -65 0 0 600 0 600 -600 0 -600 0 0 60 0 60 600 0 600 0 0 595 0
595 -600 0 -600 0 0 65 0 65 600 0 600 0 0 600 0 600 65 0 65 0 0 -600z m-480
415 l0 -65 -205 0 -205 0 -30 -27 c-56 -50 -48 -151 13 -185 12 -7 74 -15 137
-19 130 -6 175 -23 227 -82 108 -123 65 -311 -87 -381 -40 -19 -67 -21 -252
-24 l-208 -3 0 65 0 66 195 0 c216 0 242 6 270 60 26 49 19 94 -19 134 -33 36
-33 36 -122 36 -49 0 -109 5 -133 11 -61 14 -126 62 -158 117 -24 40 -28 57
-27 122 0 84 13 117 66 169 65 65 89 71 326 71 l212 0 0 -65z m900 -262 c0
-332 0 -331 72 -386 94 -72 236 -24 268 91 6 21 10 154 10 315 l0 277 66 0 66
0 -4 -307 -3 -308 -28 -57 c-91 -185 -335 -230 -480 -90 -90 86 -97 120 -97
470 l0 292 65 0 65 0 0 -297z m1646 -1058 c26 -17 62 -50 79 -74 l30 -43 0
-268 0 -268 -30 -43 c-17 -24 -50 -57 -74 -74 -41 -29 -46 -30 -175 -33 -120
-3 -138 -1 -180 18 -52 25 -90 66 -117 125 -16 35 -19 69 -19 276 0 233 0 235
26 287 51 103 118 133 290 129 115 -2 123 -3 170 -32z m-3026 -1567 l0 -193
193 193 192 192 48 0 47 0 0 -42 c0 -42 -3 -46 -170 -213 l-170 -170 170 -170
c168 -166 170 -169 170 -212 l0 -43 -43 0 c-47 0 -25 -18 -260 210 l-127 123
-25 -23 c-24 -23 -25 -27 -25 -167 l0 -143 -65 0 -65 0 0 425 0 425 65 0 65 0
0 -192z m1380 -103 c0 -321 0 -324 57 -377 77 -73 192 -60 260 29 l28 36 3
304 3 304 62 -3 62 -3 0 -305 0 -305 -28 -55 c-49 -96 -114 -147 -215 -170
-101 -23 -204 12 -282 97 -76 83 -80 104 -80 450 l0 293 65 0 65 0 0 -295z"/>
<path d="M1970 2555 l0 -595 595 0 595 0 0 595 0 595 -595 0 -595 0 0 -595z
m755 431 c52 -23 92 -63 123 -120 15 -27 17 -63 17 -276 0 -233 -1 -247 -22
-286 -25 -48 -83 -101 -129 -120 -25 -10 -88 -14 -244 -14 l-210 0 0 420 0
420 208 0 c196 0 210 -1 257 -24z"/>
<path d="M2390 2591 l0 -301 129 0 c117 0 131 2 162 23 56 37 59 51 59 277 0
221 -3 237 -53 274 -25 18 -45 21 -163 24 l-134 4 0 -301z"/>
<path d="M3744 2871 c-65 -30 -74 -64 -73 -284 0 -114 5 -195 12 -216 20 -56
56 -75 151 -79 99 -5 146 12 176 60 18 30 20 50 20 239 0 198 -1 207 -23 240
-13 19 -38 39 -57 46 -54 19 -159 15 -206 -6z"/>
<path d="M831 5094 c0 -11 3 -14 6 -6 3 7 2 16 -1 19 -3 4 -6 -2 -5 -13z"/>
<path d="M1031 5094 c0 -11 3 -14 6 -6 3 7 2 16 -1 19 -3 4 -6 -2 -5 -13z"/>
<path d="M831 5054 c0 -11 3 -14 6 -6 3 7 2 16 -1 19 -3 4 -6 -2 -5 -13z"/>
<path d="M1031 5054 c0 -11 3 -14 6 -6 3 7 2 16 -1 19 -3 4 -6 -2 -5 -13z"/>
<path d="M1051 5054 c0 -11 3 -14 6 -6 3 7 2 16 -1 19 -3 4 -6 -2 -5 -13z"/>
<path d="M831 5014 c0 -11 3 -14 6 -6 3 7 2 16 -1 19 -3 4 -6 -2 -5 -13z"/>
<path d="M851 5014 c0 -11 3 -14 6 -6 3 7 2 16 -1 19 -3 4 -6 -2 -5 -13z"/>
<path d="M1031 5014 c0 -11 3 -14 6 -6 3 7 2 16 -1 19 -3 4 -6 -2 -5 -13z"/>
<path d="M1051 5014 c0 -11 3 -14 6 -6 3 7 2 16 -1 19 -3 4 -6 -2 -5 -13z"/>
<path d="M833 4920 c0 -41 2 -58 4 -37 2 20 2 54 0 75 -2 20 -4 3 -4 -38z"/>
<path d="M851 4974 c0 -11 3 -14 6 -6 3 7 2 16 -1 19 -3 4 -6 -2 -5 -13z"/>
<path d="M851 4934 c0 -11 3 -14 6 -6 3 7 2 16 -1 19 -3 4 -6 -2 -5 -13z"/>
<path d="M791 4854 c0 -11 3 -14 6 -6 3 7 2 16 -1 19 -3 4 -6 -2 -5 -13z"/>
<path d="M793 4790 c0 -25 2 -35 4 -22 2 12 2 32 0 45 -2 12 -4 2 -4 -23z"/>
<path d="M812 4810 c0 -14 2 -19 5 -12 2 6 2 18 0 25 -3 6 -5 1 -5 -13z"/>
<path d="M1011 4814 c0 -11 3 -14 6 -6 3 7 2 16 -1 19 -3 4 -6 -2 -5 -13z"/>
<path d="M753 4710 c0 -25 2 -35 4 -22 2 12 2 32 0 45 -2 12 -4 2 -4 -23z"/>
<path d="M772 4730 c0 -14 2 -19 5 -12 2 6 2 18 0 25 -3 6 -5 1 -5 -13z"/>
<path d="M712 4640 c0 -19 2 -27 5 -17 2 9 2 25 0 35 -3 9 -5 1 -5 -18z"/>
<path d="M731 4654 c0 -11 3 -14 6 -6 3 7 2 16 -1 19 -3 4 -6 -2 -5 -13z"/>
<path d="M673 4595 c0 -22 2 -30 4 -17 2 12 2 30 0 40 -3 9 -5 -1 -4 -23z"/>
<path d="M633 4550 c0 -25 2 -35 4 -22 2 12 2 32 0 45 -2 12 -4 2 -4 -23z"/>
<path d="M592 4500 c0 -19 2 -27 5 -17 2 9 2 25 0 35 -3 9 -5 1 -5 -18z"/>
<path d="M553 4475 c0 -22 2 -30 4 -17 2 12 2 30 0 40 -3 9 -5 -1 -4 -23z"/>
<path d="M512 4440 c0 -19 2 -27 5 -17 2 9 2 25 0 35 -3 9 -5 1 -5 -18z"/>
<path d="M472 4405 c0 -16 2 -22 5 -12 2 9 2 23 0 30 -3 6 -5 -1 -5 -18z"/>
<path d="M492 4410 c0 -14 2 -19 5 -12 2 6 2 18 0 25 -3 6 -5 1 -5 -13z"/>
<path d="M392 4365 c0 -16 2 -22 5 -12 2 9 2 23 0 30 -3 6 -5 -1 -5 -18z"/>
<path d="M431 4374 c0 -11 3 -14 6 -6 3 7 2 16 -1 19 -3 4 -6 -2 -5 -13z"/>
<path d="M312 4325 c0 -16 2 -22 5 -12 2 9 2 23 0 30 -3 6 -5 -1 -5 -18z"/>
<path d="M351 4334 c0 -11 3 -14 6 -6 3 7 2 16 -1 19 -3 4 -6 -2 -5 -13z"/>
<path d="M272 4310 c0 -14 2 -19 5 -12 2 6 2 18 0 25 -3 6 -5 1 -5 -13z"/>
<path d="M152 4285 c0 -16 2 -22 5 -12 2 9 2 23 0 30 -3 6 -5 -1 -5 -18z"/>
<path d="M192 4285 c0 -16 2 -22 5 -12 2 9 2 23 0 30 -3 6 -5 -1 -5 -18z"/>
<path d="M232 4290 c0 -14 2 -19 5 -12 2 6 2 18 0 25 -3 6 -5 1 -5 -13z"/>
<path d="M251 4294 c0 -11 3 -14 6 -6 3 7 2 16 -1 19 -3 4 -6 -2 -5 -13z"/>
<path d="M72 4270 c0 -14 2 -19 5 -12 2 6 2 18 0 25 -3 6 -5 1 -5 -13z"/>
<path d="M112 4270 c0 -14 2 -19 5 -12 2 6 2 18 0 25 -3 6 -5 1 -5 -13z"/>
<path d="M11 4254 c0 -11 3 -14 6 -6 3 7 2 16 -1 19 -3 4 -6 -2 -5 -13z"/>
<path d="M31 4254 c0 -11 3 -14 6 -6 3 7 2 16 -1 19 -3 4 -6 -2 -5 -13z"/>
<path d="M51 4254 c0 -11 3 -14 6 -6 3 7 2 16 -1 19 -3 4 -6 -2 -5 -13z"/>
</g>
</svg>
