<svg xmlns="http://www.w3.org/2000/svg" width="32" height="32"><path style="text-indent:0;text-align:start;line-height:normal;text-transform:none;block-progression:tb;marker:none;-inkscape-font-specification:Sans" d="M16 0C7.17 0 0 7.17 0 16s7.17 16 16 16 16-7.17 16-16S24.83 0 16 0zm0 1c8.29 0 15 6.71 15 15s-6.71 15-15 15S1 24.29 1 16 7.71 1 16 1zM8.687 8.375c-.227 0-.312.15-.312.281v4.594h4.906V8.375H8.687zm5.188 0v4.875h4.344V8.375h-4.344zm4.906 0v4.875h4.844V8.656c0-.163-.15-.281-.313-.281h-4.53zm-7.656 1.469c.39 0 .563.235.563.625v1.281c0 .426-.172.625-.563.625-.39 0-.594-.2-.594-.625v-.031h.375v.062c0 .178.081.25.188.25.142 0 .219-.064.219-.312v-.438c-.037.142-.198.219-.376.219-.283 0-.406-.208-.406-.563v-.468c0-.39.204-.625.594-.625zm9.844.031h.25v2.469h-.375v-1.875h-.282v-.281c.284 0 .336-.136.407-.313zm-9.844.313c-.142 0-.219.072-.219.25v.468c0 .178.077.25.219.25.106 0 .188-.073.188-.25v-.469c0-.177-.082-.25-.188-.25zm-2.75 3.656v4.312h4.906v-4.312H8.375zm5.5 0v4.312h4.344v-4.312h-4.344zm4.906 0v4.312h4.844v-4.312h-4.844zm-7.656.906c.355 0 .563.235.563.625 0 .638-.47.727-.47 1.188v.156h-.312c-.036-.035-.031-.121-.031-.157 0-.567.438-.611.438-1.25 0-.177-.077-.187-.22-.187-.106 0-.187.01-.187.188v.312h-.344v-.25c0-.39.173-.625.563-.625zm4.469 0h1.031v.375h-.688l-.03.563c.07-.107.17-.188.312-.188.282 0 .468.208.468.563v.562c0 .39-.203.625-.593.625-.39 0-.563-.235-.563-.625v-.188h.344v.188c0 .177.077.25.219.25.106 0 .218-.073.218-.25v-.531c0-.178-.112-.25-.218-.25-.142 0-.219.073-.219.25v.093h-.344l.063-1.437zm-4.719 2.125h.406v.375h-.406v-.375zm-2.5 1.875v4.594c0 .148.103.262.25.281H13.281V18.75H8.375zm5.5 0v4.875h4.344V18.75h-4.344zm4.906 0v4.875h4.532c.163 0 .312-.118.312-.281V18.75h-4.844zm-7.656.875c.39 0 .563.235.563.625 0 .78-.782 1.074-.782 1.5v.031h.75v.344h-1.125v-.281c0-.745.781-.85.781-1.594 0-.213-.076-.281-.218-.281-.107 0-.188.073-.188.25v.281h-.375v-.25c0-.39.204-.625.594-.625zm9.75 0c.39 0 .594.235.594.625 0 .638-.438.758-.438 1.219v.125h-.375v-.157c0-.532.438-.58.438-1.218 0-.178-.077-.25-.219-.25-.106 0-.188.073-.188.25v.281h-.375v-.25c0-.39.208-.625.563-.625zm-.219 2.156h.375v.344h-.375v-.344z" color="#000" font-family="Sans" font-weight="400" overflow="visible"/></svg>