<?xml version="1.0" encoding="utf-8"?>
<svg xmlns="http://www.w3.org/2000/svg" xmlns:xlink="http://www.w3.org/1999/xlink" style="margin: auto; background: none; display: block; shape-rendering: auto;" width="197px" height="197px" viewBox="0 0 100 100" preserveAspectRatio="xMidYMid">
<g transform="rotate(0 50 50)">
  <rect x="43" y="26.5" rx="7" ry="2.5" width="14" height="5" fill="#ffffff">
    <animate attributeName="opacity" values="1;0" keyTimes="0;1" dur="2.8571428571428568s" begin="-2.819548872180451s" repeatCount="indefinite"></animate>
  </rect>
</g><g transform="rotate(4.7368421052631575 50 50)">
  <rect x="43" y="26.5" rx="7" ry="2.5" width="14" height="5" fill="#ffffff">
    <animate attributeName="opacity" values="1;0" keyTimes="0;1" dur="2.8571428571428568s" begin="-2.781954887218045s" repeatCount="indefinite"></animate>
  </rect>
</g><g transform="rotate(9.473684210526315 50 50)">
  <rect x="43" y="26.5" rx="7" ry="2.5" width="14" height="5" fill="#ffffff">
    <animate attributeName="opacity" values="1;0" keyTimes="0;1" dur="2.8571428571428568s" begin="-2.744360902255639s" repeatCount="indefinite"></animate>
  </rect>
</g><g transform="rotate(14.210526315789474 50 50)">
  <rect x="43" y="26.5" rx="7" ry="2.5" width="14" height="5" fill="#ffffff">
    <animate attributeName="opacity" values="1;0" keyTimes="0;1" dur="2.8571428571428568s" begin="-2.706766917293233s" repeatCount="indefinite"></animate>
  </rect>
</g><g transform="rotate(18.94736842105263 50 50)">
  <rect x="43" y="26.5" rx="7" ry="2.5" width="14" height="5" fill="#ffffff">
    <animate attributeName="opacity" values="1;0" keyTimes="0;1" dur="2.8571428571428568s" begin="-2.669172932330827s" repeatCount="indefinite"></animate>
  </rect>
</g><g transform="rotate(23.68421052631579 50 50)">
  <rect x="43" y="26.5" rx="7" ry="2.5" width="14" height="5" fill="#ffffff">
    <animate attributeName="opacity" values="1;0" keyTimes="0;1" dur="2.8571428571428568s" begin="-2.631578947368421s" repeatCount="indefinite"></animate>
  </rect>
</g><g transform="rotate(28.42105263157895 50 50)">
  <rect x="43" y="26.5" rx="7" ry="2.5" width="14" height="5" fill="#ffffff">
    <animate attributeName="opacity" values="1;0" keyTimes="0;1" dur="2.8571428571428568s" begin="-2.5939849624060147s" repeatCount="indefinite"></animate>
  </rect>
</g><g transform="rotate(33.1578947368421 50 50)">
  <rect x="43" y="26.5" rx="7" ry="2.5" width="14" height="5" fill="#ffffff">
    <animate attributeName="opacity" values="1;0" keyTimes="0;1" dur="2.8571428571428568s" begin="-2.556390977443609s" repeatCount="indefinite"></animate>
  </rect>
</g><g transform="rotate(37.89473684210526 50 50)">
  <rect x="43" y="26.5" rx="7" ry="2.5" width="14" height="5" fill="#ffffff">
    <animate attributeName="opacity" values="1;0" keyTimes="0;1" dur="2.8571428571428568s" begin="-2.518796992481203s" repeatCount="indefinite"></animate>
  </rect>
</g><g transform="rotate(42.63157894736842 50 50)">
  <rect x="43" y="26.5" rx="7" ry="2.5" width="14" height="5" fill="#ffffff">
    <animate attributeName="opacity" values="1;0" keyTimes="0;1" dur="2.8571428571428568s" begin="-2.481203007518797s" repeatCount="indefinite"></animate>
  </rect>
</g><g transform="rotate(47.36842105263158 50 50)">
  <rect x="43" y="26.5" rx="7" ry="2.5" width="14" height="5" fill="#ffffff">
    <animate attributeName="opacity" values="1;0" keyTimes="0;1" dur="2.8571428571428568s" begin="-2.443609022556391s" repeatCount="indefinite"></animate>
  </rect>
</g><g transform="rotate(52.10526315789474 50 50)">
  <rect x="43" y="26.5" rx="7" ry="2.5" width="14" height="5" fill="#ffffff">
    <animate attributeName="opacity" values="1;0" keyTimes="0;1" dur="2.8571428571428568s" begin="-2.406015037593985s" repeatCount="indefinite"></animate>
  </rect>
</g><g transform="rotate(56.8421052631579 50 50)">
  <rect x="43" y="26.5" rx="7" ry="2.5" width="14" height="5" fill="#ffffff">
    <animate attributeName="opacity" values="1;0" keyTimes="0;1" dur="2.8571428571428568s" begin="-2.3684210526315788s" repeatCount="indefinite"></animate>
  </rect>
</g><g transform="rotate(61.578947368421055 50 50)">
  <rect x="43" y="26.5" rx="7" ry="2.5" width="14" height="5" fill="#ffffff">
    <animate attributeName="opacity" values="1;0" keyTimes="0;1" dur="2.8571428571428568s" begin="-2.3308270676691727s" repeatCount="indefinite"></animate>
  </rect>
</g><g transform="rotate(66.3157894736842 50 50)">
  <rect x="43" y="26.5" rx="7" ry="2.5" width="14" height="5" fill="#ffffff">
    <animate attributeName="opacity" values="1;0" keyTimes="0;1" dur="2.8571428571428568s" begin="-2.2932330827067666s" repeatCount="indefinite"></animate>
  </rect>
</g><g transform="rotate(71.05263157894737 50 50)">
  <rect x="43" y="26.5" rx="7" ry="2.5" width="14" height="5" fill="#ffffff">
    <animate attributeName="opacity" values="1;0" keyTimes="0;1" dur="2.8571428571428568s" begin="-2.255639097744361s" repeatCount="indefinite"></animate>
  </rect>
</g><g transform="rotate(75.78947368421052 50 50)">
  <rect x="43" y="26.5" rx="7" ry="2.5" width="14" height="5" fill="#ffffff">
    <animate attributeName="opacity" values="1;0" keyTimes="0;1" dur="2.8571428571428568s" begin="-2.218045112781955s" repeatCount="indefinite"></animate>
  </rect>
</g><g transform="rotate(80.52631578947368 50 50)">
  <rect x="43" y="26.5" rx="7" ry="2.5" width="14" height="5" fill="#ffffff">
    <animate attributeName="opacity" values="1;0" keyTimes="0;1" dur="2.8571428571428568s" begin="-2.180451127819549s" repeatCount="indefinite"></animate>
  </rect>
</g><g transform="rotate(85.26315789473684 50 50)">
  <rect x="43" y="26.5" rx="7" ry="2.5" width="14" height="5" fill="#ffffff">
    <animate attributeName="opacity" values="1;0" keyTimes="0;1" dur="2.8571428571428568s" begin="-2.142857142857143s" repeatCount="indefinite"></animate>
  </rect>
</g><g transform="rotate(90 50 50)">
  <rect x="43" y="26.5" rx="7" ry="2.5" width="14" height="5" fill="#ffffff">
    <animate attributeName="opacity" values="1;0" keyTimes="0;1" dur="2.8571428571428568s" begin="-2.1052631578947367s" repeatCount="indefinite"></animate>
  </rect>
</g><g transform="rotate(94.73684210526316 50 50)">
  <rect x="43" y="26.5" rx="7" ry="2.5" width="14" height="5" fill="#ffffff">
    <animate attributeName="opacity" values="1;0" keyTimes="0;1" dur="2.8571428571428568s" begin="-2.0676691729323307s" repeatCount="indefinite"></animate>
  </rect>
</g><g transform="rotate(99.47368421052632 50 50)">
  <rect x="43" y="26.5" rx="7" ry="2.5" width="14" height="5" fill="#ffffff">
    <animate attributeName="opacity" values="1;0" keyTimes="0;1" dur="2.8571428571428568s" begin="-2.0300751879699246s" repeatCount="indefinite"></animate>
  </rect>
</g><g transform="rotate(104.21052631578948 50 50)">
  <rect x="43" y="26.5" rx="7" ry="2.5" width="14" height="5" fill="#ffffff">
    <animate attributeName="opacity" values="1;0" keyTimes="0;1" dur="2.8571428571428568s" begin="-1.9924812030075187s" repeatCount="indefinite"></animate>
  </rect>
</g><g transform="rotate(108.94736842105263 50 50)">
  <rect x="43" y="26.5" rx="7" ry="2.5" width="14" height="5" fill="#ffffff">
    <animate attributeName="opacity" values="1;0" keyTimes="0;1" dur="2.8571428571428568s" begin="-1.9548872180451127s" repeatCount="indefinite"></animate>
  </rect>
</g><g transform="rotate(113.6842105263158 50 50)">
  <rect x="43" y="26.5" rx="7" ry="2.5" width="14" height="5" fill="#ffffff">
    <animate attributeName="opacity" values="1;0" keyTimes="0;1" dur="2.8571428571428568s" begin="-1.9172932330827066s" repeatCount="indefinite"></animate>
  </rect>
</g><g transform="rotate(118.42105263157895 50 50)">
  <rect x="43" y="26.5" rx="7" ry="2.5" width="14" height="5" fill="#ffffff">
    <animate attributeName="opacity" values="1;0" keyTimes="0;1" dur="2.8571428571428568s" begin="-1.8796992481203008s" repeatCount="indefinite"></animate>
  </rect>
</g><g transform="rotate(123.15789473684211 50 50)">
  <rect x="43" y="26.5" rx="7" ry="2.5" width="14" height="5" fill="#ffffff">
    <animate attributeName="opacity" values="1;0" keyTimes="0;1" dur="2.8571428571428568s" begin="-1.8421052631578947s" repeatCount="indefinite"></animate>
  </rect>
</g><g transform="rotate(127.89473684210526 50 50)">
  <rect x="43" y="26.5" rx="7" ry="2.5" width="14" height="5" fill="#ffffff">
    <animate attributeName="opacity" values="1;0" keyTimes="0;1" dur="2.8571428571428568s" begin="-1.8045112781954886s" repeatCount="indefinite"></animate>
  </rect>
</g><g transform="rotate(132.6315789473684 50 50)">
  <rect x="43" y="26.5" rx="7" ry="2.5" width="14" height="5" fill="#ffffff">
    <animate attributeName="opacity" values="1;0" keyTimes="0;1" dur="2.8571428571428568s" begin="-1.7669172932330826s" repeatCount="indefinite"></animate>
  </rect>
</g><g transform="rotate(137.3684210526316 50 50)">
  <rect x="43" y="26.5" rx="7" ry="2.5" width="14" height="5" fill="#ffffff">
    <animate attributeName="opacity" values="1;0" keyTimes="0;1" dur="2.8571428571428568s" begin="-1.7293233082706767s" repeatCount="indefinite"></animate>
  </rect>
</g><g transform="rotate(142.10526315789474 50 50)">
  <rect x="43" y="26.5" rx="7" ry="2.5" width="14" height="5" fill="#ffffff">
    <animate attributeName="opacity" values="1;0" keyTimes="0;1" dur="2.8571428571428568s" begin="-1.6917293233082706s" repeatCount="indefinite"></animate>
  </rect>
</g><g transform="rotate(146.8421052631579 50 50)">
  <rect x="43" y="26.5" rx="7" ry="2.5" width="14" height="5" fill="#ffffff">
    <animate attributeName="opacity" values="1;0" keyTimes="0;1" dur="2.8571428571428568s" begin="-1.6541353383458646s" repeatCount="indefinite"></animate>
  </rect>
</g><g transform="rotate(151.57894736842104 50 50)">
  <rect x="43" y="26.5" rx="7" ry="2.5" width="14" height="5" fill="#ffffff">
    <animate attributeName="opacity" values="1;0" keyTimes="0;1" dur="2.8571428571428568s" begin="-1.6165413533834585s" repeatCount="indefinite"></animate>
  </rect>
</g><g transform="rotate(156.31578947368422 50 50)">
  <rect x="43" y="26.5" rx="7" ry="2.5" width="14" height="5" fill="#ffffff">
    <animate attributeName="opacity" values="1;0" keyTimes="0;1" dur="2.8571428571428568s" begin="-1.5789473684210527s" repeatCount="indefinite"></animate>
  </rect>
</g><g transform="rotate(161.05263157894737 50 50)">
  <rect x="43" y="26.5" rx="7" ry="2.5" width="14" height="5" fill="#ffffff">
    <animate attributeName="opacity" values="1;0" keyTimes="0;1" dur="2.8571428571428568s" begin="-1.5413533834586466s" repeatCount="indefinite"></animate>
  </rect>
</g><g transform="rotate(165.78947368421052 50 50)">
  <rect x="43" y="26.5" rx="7" ry="2.5" width="14" height="5" fill="#ffffff">
    <animate attributeName="opacity" values="1;0" keyTimes="0;1" dur="2.8571428571428568s" begin="-1.5037593984962405s" repeatCount="indefinite"></animate>
  </rect>
</g><g transform="rotate(170.52631578947367 50 50)">
  <rect x="43" y="26.5" rx="7" ry="2.5" width="14" height="5" fill="#ffffff">
    <animate attributeName="opacity" values="1;0" keyTimes="0;1" dur="2.8571428571428568s" begin="-1.4661654135338344s" repeatCount="indefinite"></animate>
  </rect>
</g><g transform="rotate(175.26315789473685 50 50)">
  <rect x="43" y="26.5" rx="7" ry="2.5" width="14" height="5" fill="#ffffff">
    <animate attributeName="opacity" values="1;0" keyTimes="0;1" dur="2.8571428571428568s" begin="-1.4285714285714286s" repeatCount="indefinite"></animate>
  </rect>
</g><g transform="rotate(180 50 50)">
  <rect x="43" y="26.5" rx="7" ry="2.5" width="14" height="5" fill="#ffffff">
    <animate attributeName="opacity" values="1;0" keyTimes="0;1" dur="2.8571428571428568s" begin="-1.3909774436090225s" repeatCount="indefinite"></animate>
  </rect>
</g><g transform="rotate(184.73684210526315 50 50)">
  <rect x="43" y="26.5" rx="7" ry="2.5" width="14" height="5" fill="#ffffff">
    <animate attributeName="opacity" values="1;0" keyTimes="0;1" dur="2.8571428571428568s" begin="-1.3533834586466165s" repeatCount="indefinite"></animate>
  </rect>
</g><g transform="rotate(189.47368421052633 50 50)">
  <rect x="43" y="26.5" rx="7" ry="2.5" width="14" height="5" fill="#ffffff">
    <animate attributeName="opacity" values="1;0" keyTimes="0;1" dur="2.8571428571428568s" begin="-1.3157894736842104s" repeatCount="indefinite"></animate>
  </rect>
</g><g transform="rotate(194.21052631578948 50 50)">
  <rect x="43" y="26.5" rx="7" ry="2.5" width="14" height="5" fill="#ffffff">
    <animate attributeName="opacity" values="1;0" keyTimes="0;1" dur="2.8571428571428568s" begin="-1.2781954887218046s" repeatCount="indefinite"></animate>
  </rect>
</g><g transform="rotate(198.94736842105263 50 50)">
  <rect x="43" y="26.5" rx="7" ry="2.5" width="14" height="5" fill="#ffffff">
    <animate attributeName="opacity" values="1;0" keyTimes="0;1" dur="2.8571428571428568s" begin="-1.2406015037593985s" repeatCount="indefinite"></animate>
  </rect>
</g><g transform="rotate(203.68421052631578 50 50)">
  <rect x="43" y="26.5" rx="7" ry="2.5" width="14" height="5" fill="#ffffff">
    <animate attributeName="opacity" values="1;0" keyTimes="0;1" dur="2.8571428571428568s" begin="-1.2030075187969924s" repeatCount="indefinite"></animate>
  </rect>
</g><g transform="rotate(208.42105263157896 50 50)">
  <rect x="43" y="26.5" rx="7" ry="2.5" width="14" height="5" fill="#ffffff">
    <animate attributeName="opacity" values="1;0" keyTimes="0;1" dur="2.8571428571428568s" begin="-1.1654135338345863s" repeatCount="indefinite"></animate>
  </rect>
</g><g transform="rotate(213.1578947368421 50 50)">
  <rect x="43" y="26.5" rx="7" ry="2.5" width="14" height="5" fill="#ffffff">
    <animate attributeName="opacity" values="1;0" keyTimes="0;1" dur="2.8571428571428568s" begin="-1.1278195488721805s" repeatCount="indefinite"></animate>
  </rect>
</g><g transform="rotate(217.89473684210526 50 50)">
  <rect x="43" y="26.5" rx="7" ry="2.5" width="14" height="5" fill="#ffffff">
    <animate attributeName="opacity" values="1;0" keyTimes="0;1" dur="2.8571428571428568s" begin="-1.0902255639097744s" repeatCount="indefinite"></animate>
  </rect>
</g><g transform="rotate(222.6315789473684 50 50)">
  <rect x="43" y="26.5" rx="7" ry="2.5" width="14" height="5" fill="#ffffff">
    <animate attributeName="opacity" values="1;0" keyTimes="0;1" dur="2.8571428571428568s" begin="-1.0526315789473684s" repeatCount="indefinite"></animate>
  </rect>
</g><g transform="rotate(227.3684210526316 50 50)">
  <rect x="43" y="26.5" rx="7" ry="2.5" width="14" height="5" fill="#ffffff">
    <animate attributeName="opacity" values="1;0" keyTimes="0;1" dur="2.8571428571428568s" begin="-1.0150375939849623s" repeatCount="indefinite"></animate>
  </rect>
</g><g transform="rotate(232.10526315789474 50 50)">
  <rect x="43" y="26.5" rx="7" ry="2.5" width="14" height="5" fill="#ffffff">
    <animate attributeName="opacity" values="1;0" keyTimes="0;1" dur="2.8571428571428568s" begin="-0.9774436090225563s" repeatCount="indefinite"></animate>
  </rect>
</g><g transform="rotate(236.8421052631579 50 50)">
  <rect x="43" y="26.5" rx="7" ry="2.5" width="14" height="5" fill="#ffffff">
    <animate attributeName="opacity" values="1;0" keyTimes="0;1" dur="2.8571428571428568s" begin="-0.9398496240601504s" repeatCount="indefinite"></animate>
  </rect>
</g><g transform="rotate(241.57894736842104 50 50)">
  <rect x="43" y="26.5" rx="7" ry="2.5" width="14" height="5" fill="#ffffff">
    <animate attributeName="opacity" values="1;0" keyTimes="0;1" dur="2.8571428571428568s" begin="-0.9022556390977443s" repeatCount="indefinite"></animate>
  </rect>
</g><g transform="rotate(246.31578947368422 50 50)">
  <rect x="43" y="26.5" rx="7" ry="2.5" width="14" height="5" fill="#ffffff">
    <animate attributeName="opacity" values="1;0" keyTimes="0;1" dur="2.8571428571428568s" begin="-0.8646616541353384s" repeatCount="indefinite"></animate>
  </rect>
</g><g transform="rotate(251.05263157894737 50 50)">
  <rect x="43" y="26.5" rx="7" ry="2.5" width="14" height="5" fill="#ffffff">
    <animate attributeName="opacity" values="1;0" keyTimes="0;1" dur="2.8571428571428568s" begin="-0.8270676691729323s" repeatCount="indefinite"></animate>
  </rect>
</g><g transform="rotate(255.78947368421052 50 50)">
  <rect x="43" y="26.5" rx="7" ry="2.5" width="14" height="5" fill="#ffffff">
    <animate attributeName="opacity" values="1;0" keyTimes="0;1" dur="2.8571428571428568s" begin="-0.7894736842105263s" repeatCount="indefinite"></animate>
  </rect>
</g><g transform="rotate(260.5263157894737 50 50)">
  <rect x="43" y="26.5" rx="7" ry="2.5" width="14" height="5" fill="#ffffff">
    <animate attributeName="opacity" values="1;0" keyTimes="0;1" dur="2.8571428571428568s" begin="-0.7518796992481203s" repeatCount="indefinite"></animate>
  </rect>
</g><g transform="rotate(265.2631578947368 50 50)">
  <rect x="43" y="26.5" rx="7" ry="2.5" width="14" height="5" fill="#ffffff">
    <animate attributeName="opacity" values="1;0" keyTimes="0;1" dur="2.8571428571428568s" begin="-0.7142857142857143s" repeatCount="indefinite"></animate>
  </rect>
</g><g transform="rotate(270 50 50)">
  <rect x="43" y="26.5" rx="7" ry="2.5" width="14" height="5" fill="#ffffff">
    <animate attributeName="opacity" values="1;0" keyTimes="0;1" dur="2.8571428571428568s" begin="-0.6766917293233082s" repeatCount="indefinite"></animate>
  </rect>
</g><g transform="rotate(274.7368421052632 50 50)">
  <rect x="43" y="26.5" rx="7" ry="2.5" width="14" height="5" fill="#ffffff">
    <animate attributeName="opacity" values="1;0" keyTimes="0;1" dur="2.8571428571428568s" begin="-0.6390977443609023s" repeatCount="indefinite"></animate>
  </rect>
</g><g transform="rotate(279.4736842105263 50 50)">
  <rect x="43" y="26.5" rx="7" ry="2.5" width="14" height="5" fill="#ffffff">
    <animate attributeName="opacity" values="1;0" keyTimes="0;1" dur="2.8571428571428568s" begin="-0.6015037593984962s" repeatCount="indefinite"></animate>
  </rect>
</g><g transform="rotate(284.2105263157895 50 50)">
  <rect x="43" y="26.5" rx="7" ry="2.5" width="14" height="5" fill="#ffffff">
    <animate attributeName="opacity" values="1;0" keyTimes="0;1" dur="2.8571428571428568s" begin="-0.5639097744360902s" repeatCount="indefinite"></animate>
  </rect>
</g><g transform="rotate(288.94736842105266 50 50)">
  <rect x="43" y="26.5" rx="7" ry="2.5" width="14" height="5" fill="#ffffff">
    <animate attributeName="opacity" values="1;0" keyTimes="0;1" dur="2.8571428571428568s" begin="-0.5263157894736842s" repeatCount="indefinite"></animate>
  </rect>
</g><g transform="rotate(293.6842105263158 50 50)">
  <rect x="43" y="26.5" rx="7" ry="2.5" width="14" height="5" fill="#ffffff">
    <animate attributeName="opacity" values="1;0" keyTimes="0;1" dur="2.8571428571428568s" begin="-0.48872180451127817s" repeatCount="indefinite"></animate>
  </rect>
</g><g transform="rotate(298.42105263157896 50 50)">
  <rect x="43" y="26.5" rx="7" ry="2.5" width="14" height="5" fill="#ffffff">
    <animate attributeName="opacity" values="1;0" keyTimes="0;1" dur="2.8571428571428568s" begin="-0.45112781954887216s" repeatCount="indefinite"></animate>
  </rect>
</g><g transform="rotate(303.1578947368421 50 50)">
  <rect x="43" y="26.5" rx="7" ry="2.5" width="14" height="5" fill="#ffffff">
    <animate attributeName="opacity" values="1;0" keyTimes="0;1" dur="2.8571428571428568s" begin="-0.41353383458646614s" repeatCount="indefinite"></animate>
  </rect>
</g><g transform="rotate(307.89473684210526 50 50)">
  <rect x="43" y="26.5" rx="7" ry="2.5" width="14" height="5" fill="#ffffff">
    <animate attributeName="opacity" values="1;0" keyTimes="0;1" dur="2.8571428571428568s" begin="-0.37593984962406013s" repeatCount="indefinite"></animate>
  </rect>
</g><g transform="rotate(312.63157894736844 50 50)">
  <rect x="43" y="26.5" rx="7" ry="2.5" width="14" height="5" fill="#ffffff">
    <animate attributeName="opacity" values="1;0" keyTimes="0;1" dur="2.8571428571428568s" begin="-0.3383458646616541s" repeatCount="indefinite"></animate>
  </rect>
</g><g transform="rotate(317.36842105263156 50 50)">
  <rect x="43" y="26.5" rx="7" ry="2.5" width="14" height="5" fill="#ffffff">
    <animate attributeName="opacity" values="1;0" keyTimes="0;1" dur="2.8571428571428568s" begin="-0.3007518796992481s" repeatCount="indefinite"></animate>
  </rect>
</g><g transform="rotate(322.10526315789474 50 50)">
  <rect x="43" y="26.5" rx="7" ry="2.5" width="14" height="5" fill="#ffffff">
    <animate attributeName="opacity" values="1;0" keyTimes="0;1" dur="2.8571428571428568s" begin="-0.2631578947368421s" repeatCount="indefinite"></animate>
  </rect>
</g><g transform="rotate(326.8421052631579 50 50)">
  <rect x="43" y="26.5" rx="7" ry="2.5" width="14" height="5" fill="#ffffff">
    <animate attributeName="opacity" values="1;0" keyTimes="0;1" dur="2.8571428571428568s" begin="-0.22556390977443608s" repeatCount="indefinite"></animate>
  </rect>
</g><g transform="rotate(331.57894736842104 50 50)">
  <rect x="43" y="26.5" rx="7" ry="2.5" width="14" height="5" fill="#ffffff">
    <animate attributeName="opacity" values="1;0" keyTimes="0;1" dur="2.8571428571428568s" begin="-0.18796992481203006s" repeatCount="indefinite"></animate>
  </rect>
</g><g transform="rotate(336.3157894736842 50 50)">
  <rect x="43" y="26.5" rx="7" ry="2.5" width="14" height="5" fill="#ffffff">
    <animate attributeName="opacity" values="1;0" keyTimes="0;1" dur="2.8571428571428568s" begin="-0.15037593984962405s" repeatCount="indefinite"></animate>
  </rect>
</g><g transform="rotate(341.05263157894734 50 50)">
  <rect x="43" y="26.5" rx="7" ry="2.5" width="14" height="5" fill="#ffffff">
    <animate attributeName="opacity" values="1;0" keyTimes="0;1" dur="2.8571428571428568s" begin="-0.11278195488721804s" repeatCount="indefinite"></animate>
  </rect>
</g><g transform="rotate(345.7894736842105 50 50)">
  <rect x="43" y="26.5" rx="7" ry="2.5" width="14" height="5" fill="#ffffff">
    <animate attributeName="opacity" values="1;0" keyTimes="0;1" dur="2.8571428571428568s" begin="-0.07518796992481203s" repeatCount="indefinite"></animate>
  </rect>
</g><g transform="rotate(350.5263157894737 50 50)">
  <rect x="43" y="26.5" rx="7" ry="2.5" width="14" height="5" fill="#ffffff">
    <animate attributeName="opacity" values="1;0" keyTimes="0;1" dur="2.8571428571428568s" begin="-0.03759398496240601s" repeatCount="indefinite"></animate>
  </rect>
</g><g transform="rotate(355.2631578947368 50 50)">
  <rect x="43" y="26.5" rx="7" ry="2.5" width="14" height="5" fill="#ffffff">
    <animate attributeName="opacity" values="1;0" keyTimes="0;1" dur="2.8571428571428568s" begin="0s" repeatCount="indefinite"></animate>
  </rect>
</g>
<!-- [ldio] generated by https://loading.io/ --></svg>